<?xml version="1.0" encoding="utf-8"?>
<!-- Generator: Adobe Illustrator 24.2.1, SVG Export Plug-In . SVG Version: 6.00 Build 0)  -->
<svg version="1.1" id="Layer_1" xmlns="http://www.w3.org/2000/svg" xmlns:xlink="http://www.w3.org/1999/xlink" x="0px" y="0px"
	 viewBox="0 0 265.3 40" style="enable-background:new 0 0 265.3 40;" xml:space="preserve">
<path d="M27.9,13.6h-8.8l-2.4,5.1h-2.7l7.7-16.2h3.6l7.7,16.2h-2.8L27.9,13.6z M27.2,12l-3.6-7.7L19.9,12H27.2z"/>
<path d="M37.1,2.2v16.4h-2.5V2.2H37.1z"/>
<path d="M43.1,2.2v16.4h-2.6V2.2H43.1z"/>
<path d="M58.8,12.9h-11c0,2.8,1.9,4.6,4.4,4.6c2.1,0,3.8-1.2,4.2-2.9l2.2,0.1c-0.4,2.5-3,4.4-6.5,4.4c-4,0-6.9-2.4-6.9-6.3
	c0-3.8,2.9-6.3,6.9-6.3c3.8,0,6.7,2.3,6.7,5.8C58.8,12.5,58.8,12.7,58.8,12.9z M56.3,11.7c0-2.2-1.8-3.8-4.2-3.8s-4.1,1.6-4.3,3.9
	L56.3,11.7z"/>
<path d="M61.2,7h2.5l-0.1,3h0.2c0.3-1.8,1.7-3.1,3.9-3.1c0.4,0,0.9,0.1,1.3,0.1L69,9.1c-0.5-0.1-1-0.2-1.6-0.2
	c-2.3,0-3.6,1.6-3.6,4.5v5.2h-2.5V7z"/>
<path d="M84.5,19.6c0,2.6-3.1,4.1-7.9,4.1c-4.4,0-7-1.4-7-3.5c0-1.2,0.9-2.2,2.2-2.6c-0.9-0.4-1.5-1.1-1.5-1.9c0-1.2,1-1.9,2.6-2
	v-0.1c-1.3-0.6-2.2-1.7-2.2-3c0-2.4,2.5-4,6.3-4c1.3,0,2.7,0.2,3.9,0.8c0.4-1.7,1.7-2.6,3.4-2.5l0.1,1.6c-1.4,0-2.3,0.5-2.5,1.4
	c0.9,0.6,1.4,1.6,1.4,2.7c0,2.4-2.4,4-6.1,4c-1.6,0-2.7-0.4-3.7-0.4c-0.8,0-1.3,0.4-1.3,0.9c0,0.6,0.8,1.1,2.2,1.1h4.4
	C82.4,16.1,84.5,17.4,84.5,19.6z M82,20c0-1.2-1.2-1.9-3.1-1.9h-4.4c-0.4,0-0.8,0-1.2-0.1c-0.7,0.4-1.1,1.1-1.2,1.9
	c0,1.6,1.9,2.6,4.9,2.6C80,22.5,82,21.5,82,20z M73.3,10.5c0,1.6,1.6,2.8,3.9,2.8c2.1,0,3.7-1.1,3.7-2.7S79.3,7.8,77,7.8
	C74.9,7.8,73.3,8.9,73.3,10.5z"/>
<path d="M114.5,12.2v6.5H112v-6.2c0-2.5-1.3-4-3.5-4c-2.3,0-3.6,1.5-3.6,4.1v6.1h-2.5V7h2.5l0,2.9h0.2c0.5-1.9,2.2-3.1,4.5-3.1
	C112.6,6.7,114.5,8.8,114.5,12.2z"/>
<path d="M91.7,6.6c2.4,0,4.5,1.3,5,3.1h0.1V7h2.5v11.7h-2.5V16h-0.1c-0.6,1.8-2.7,3.1-5,3.1c-3.9,0-6.6-2.7-6.6-6.3
	C85.2,9.1,88,6.6,91.7,6.6z M92.3,17.5c2.8,0,4.7-2,4.7-4.7c0-2.8-2-4.7-4.5-4.7c-2.7,0-4.7,2-4.7,4.8
	C87.8,15.6,89.8,17.5,92.3,17.5L92.3,17.5z"/>
<path d="M137.5,13.6h-8.8l-2.4,5.1h-2.8l7.7-16.2h3.6l7.7,16.2h-2.8L137.5,13.6z M136.7,12l-3.6-7.7l-3.6,7.7L136.7,12z"/>
<path d="M156.4,12.9h-11c0,2.8,1.9,4.6,4.4,4.6c2.1,0,3.8-1.2,4.2-2.9l2.2,0.1c-0.4,2.5-3,4.4-6.5,4.4c-4,0-6.9-2.4-6.9-6.3
	c0-3.8,2.9-6.3,6.9-6.3c3.8,0,6.7,2.3,6.7,5.8C156.4,12.5,156.4,12.7,156.4,12.9z M153.9,11.7c0-2.2-1.8-3.8-4.2-3.8
	c-2.4,0-4.1,1.6-4.3,3.9L153.9,11.7z"/>
<path d="M158.1,15l2.3-0.1c0.3,1.8,1.9,2.9,4.2,2.9c1.9,0,3.2-0.7,3.2-1.9c0-1-0.9-1.7-2.5-1.9l-2.5-0.3c-2.8-0.3-4-1.6-4-3.4
	c0-2.2,2.2-3.7,5.3-3.7c3.4,0,5.6,1.6,5.9,4l-2.3,0.1c-0.2-1.8-1.6-2.8-3.7-2.8c-1.8,0-2.9,0.8-2.9,1.9c0,1,0.7,1.6,2.1,1.8l2.5,0.3
	c2.7,0.3,4.6,1.5,4.6,3.5c0,2.3-2.4,3.7-5.7,3.7C160.9,19.1,158.5,17.5,158.1,15z"/>
<path d="M194.1,12.2v6.5h-2.5v-6.2c0-2.5-1.3-4-3.5-4c-2.3,0-3.6,1.5-3.6,4.1v6.1h-2.5V2.2h2.5v7.6h0.1c0.5-1.9,2.2-3.1,4.5-3.1
	C192.2,6.8,194.1,8.8,194.1,12.2z"/>
<path d="M209.5,12.9h-11c0,2.8,1.9,4.6,4.4,4.6c2.1,0,3.8-1.2,4.2-2.9l2.2,0.1c-0.4,2.5-3,4.4-6.5,4.4c-4,0-6.9-2.4-6.9-6.3
	c0-3.8,2.9-6.3,6.9-6.3c3.8,0,6.7,2.3,6.7,5.8C209.6,12.5,209.6,12.7,209.5,12.9z M207.1,11.7c0-2.2-1.8-3.8-4.2-3.8
	c-2.4,0-4.1,1.6-4.3,3.9L207.1,11.7z"/>
<path d="M221,3.6c0-0.9,0.7-1.4,1.7-1.4s1.8,0.5,1.8,1.4S223.9,5,222.8,5S221,4.5,221,3.6z M224.1,7v11.7h-2.5V7L224.1,7z"/>
<path d="M226.7,12.9c0-3.8,3.1-6.3,7.2-6.3c3.8,0,6.5,2.1,6.7,4.9l-2.4,0.1c-0.2-2-2-3.4-4.3-3.4c-2.7,0-4.6,2-4.6,4.7
	s1.9,4.7,4.6,4.7c2.3,0,4.2-1.4,4.4-3.4l2.4,0.1c-0.3,2.8-2.9,5-6.8,5C229.8,19.1,226.7,16.7,226.7,12.9z"/>
<path d="M242.3,15l2.3-0.1c0.3,1.8,1.9,2.9,4.2,2.9c1.9,0,3.2-0.7,3.2-1.9c0-1-0.9-1.7-2.5-1.9l-2.5-0.3c-2.8-0.3-4-1.6-4-3.4
	c0-2.2,2.2-3.7,5.3-3.7c3.4,0,5.6,1.6,5.9,4l-2.3,0.1c-0.2-1.8-1.6-2.8-3.7-2.8c-1.8,0-2.9,0.8-2.9,1.9c0,1,0.7,1.6,2.1,1.8l2.5,0.3
	c2.7,0.3,4.6,1.5,4.6,3.5c0,2.3-2.4,3.7-5.8,3.7C245.1,19.1,242.7,17.5,242.3,15z"/>
<path d="M174.9,8.6h4V7h-4V3.9h-2.5v10.5c0,3.1,1.7,4.5,4.2,4.5c0.8,0,1.6-0.1,2.4-0.3l0-1.8c-0.5,0.1-1,0.2-1.6,0.2
	c-1.6,0-2.5-1.1-2.5-3V8.6z"/>
<path d="M214.3,8.6h4V7h-4V3.9h-2.5v10.5c0,3.1,1.7,4.5,4.2,4.5c0.8,0,1.6-0.1,2.4-0.3l0-1.8c-0.5,0.1-1,0.2-1.6,0.2
	c-1.6,0-2.5-1.1-2.5-3L214.3,8.6z"/>
<path d="M157.2,31.3v2.2c0,0.5,0,1,0.1,1.5h-0.9c-0.1-0.3-0.1-0.6-0.1-0.8h0c-0.4,0.6-1.1,1-2,1c-1.2,0-2-0.7-2-1.7s0.5-1.6,2.2-1.8
	c0.5-0.1,1.2-0.2,1.7-0.2v-0.2c0-1-0.5-1.4-1.3-1.4c-0.8,0-1.3,0.5-1.3,1.1h-1c0.1-1.1,0.9-1.9,2.3-1.9
	C156.3,29.1,157.2,29.8,157.2,31.3z M156.2,32.2c-0.4,0-1.1,0.1-1.5,0.2c-1,0.1-1.3,0.4-1.3,1s0.4,1,1.2,1c0.4,0,0.9-0.1,1.2-0.5
	c0.4-0.4,0.5-0.7,0.5-1.4V32.2z"/>
<path d="M163.7,31.5V35h-1v-3.4c0-1.2-0.5-1.6-1.3-1.6s-1.5,0.6-1.5,1.8V35h-1v-5.8h1V30h0c0.4-0.6,1.1-0.9,1.8-0.9
	C163,29.1,163.7,29.9,163.7,31.5z"/>
<path d="M169.2,32.6l-0.9,2.4h-1.1l3.1-8.1h1.4l3.1,8.1h-1.1l-0.9-2.4H169.2z M172.2,30.9c-0.4-1.1-0.8-2.2-1.2-3.3h0
	c-0.4,1.1-0.8,2.2-1.2,3.3l-0.3,0.7h2.9L172.2,30.9z"/>
<path d="M176.8,30c0.4-0.6,1-1,1.8-0.9c1.5,0,2.4,1.2,2.4,3c0,1.8-0.9,3-2.4,3c-0.7,0-1.4-0.3-1.8-1h0V35h-1v-8.1h1L176.8,30
	L176.8,30z M176.7,32.1c0,1.4,0.6,2.2,1.6,2.2s1.6-0.9,1.6-2.2c0-1.4-0.6-2.2-1.6-2.2C177.3,29.9,176.7,30.8,176.7,32.1z"/>
<path d="M183.3,30c0.4-0.6,1-1,1.8-0.9c1.5,0,2.4,1.2,2.4,3c0,1.8-0.9,3-2.4,3c-0.7,0-1.4-0.3-1.8-1h0V35h-1v-8.1h1L183.3,30
	L183.3,30z M183.2,32.1c0,1.4,0.6,2.2,1.6,2.2c1,0,1.6-0.9,1.6-2.2c0-1.4-0.6-2.2-1.6-2.2S183.2,30.8,183.2,32.1L183.2,32.1z"/>
<path d="M190.3,35l-2.8-8.1h1.1l1.2,3.6c0.4,1.1,0.8,2.3,1.1,3.5h0c0.4-1.2,0.7-2.3,1.1-3.5l1.2-3.6h1.1l-2.8,8.1H190.3z"/>
<path d="M195.5,28v-1.1h1V28H195.5z M195.5,35v-5.8h1V35H195.5z"/>
<path d="M202.1,33.3h1c-0.2,1-1.1,1.9-2.5,1.9c-1.7,0-2.7-1.2-2.7-3.1c0-1.7,1-3,2.7-3c1.2-0.1,2.3,0.8,2.5,2
	c0.1,0.4,0.1,0.8,0.1,1.2h-4.3c0,1.4,0.8,2.1,1.7,2.1C201.4,34.4,201.9,33.9,202.1,33.3z M198.8,31.6h3.3c-0.1-1.1-0.8-1.7-1.6-1.7
	C199.6,29.9,198.9,30.5,198.8,31.6z"/>
<path d="M211.9,31.3h-1c0-0.8-0.7-1.4-1.4-1.4c-1,0-1.6,0.9-1.6,2.2c0,1.4,0.6,2.2,1.6,2.2c0.8,0,1.4-0.6,1.4-1.5h1
	c-0.1,1.3-1.2,2.3-2.5,2.3c-1.7,0-2.7-1.2-2.7-3c0-1.9,1-3.1,2.7-3.1C210.7,29,211.8,30,211.9,31.3z"/>
<path d="M218.3,32.1c0,1.9-1.1,3-2.8,3s-2.7-1.2-2.7-3c0-1.9,1-3.1,2.7-3.1C217.3,29.1,218.3,30.2,218.3,32.1z M213.9,32.1
	c0,1.4,0.6,2.2,1.7,2.2s1.7-0.9,1.7-2.2s-0.7-2.2-1.7-2.2C214.5,29.9,213.9,30.8,213.9,32.1L213.9,32.1z"/>
<path d="M227.8,31.4V35h-1v-3.5c0-1.2-0.4-1.6-1.2-1.6c-0.8,0-1.4,0.7-1.4,1.8V35h-1v-3.7c0-0.9-0.4-1.4-1.2-1.4
	c-0.9,0-1.4,0.7-1.4,1.9V35h-1v-5.8h1V30h0c0.4-0.5,1-0.8,1.6-0.8c0.7,0,1.4,0.4,1.7,1.1c0.3-0.7,1.1-1.1,1.8-1.1
	C227.1,29.1,227.8,29.9,227.8,31.4z"/>
<path d="M234.7,32.1c0,1.8-0.9,3-2.4,3c-0.7,0-1.4-0.3-1.8-1h0v2.9h-1v-7.9h1v0.8h0c0.4-0.6,1-1,1.8-1
	C233.8,29.1,234.7,30.3,234.7,32.1z M230.5,32.1c0,1.4,0.6,2.2,1.6,2.2c1,0,1.6-0.9,1.6-2.2c0-1.4-0.6-2.2-1.6-2.2
	S230.5,30.8,230.5,32.1L230.5,32.1z"/>
<path d="M240.4,31.3v2.2c0,0.5,0,1,0.1,1.5h-0.9c-0.1-0.3-0.1-0.6-0.1-0.8h0c-0.4,0.6-1.1,1-2,1c-1.2,0-2-0.7-2-1.7s0.5-1.6,2.2-1.8
	c0.5-0.1,1.2-0.2,1.7-0.2v-0.2c0-1-0.5-1.4-1.3-1.4c-0.8,0-1.3,0.5-1.3,1.1h-1c0.1-1.1,0.9-1.9,2.3-1.9
	C239.5,29.1,240.4,29.8,240.4,31.3z M239.4,32.2c-0.4,0-1.1,0.1-1.5,0.2c-1,0.1-1.3,0.4-1.3,1s0.4,1,1.2,1c0.4,0,0.9-0.1,1.2-0.5
	c0.4-0.4,0.5-0.7,0.5-1.4V32.2z"/>
<path d="M246.9,31.5V35h-1v-3.4c0-1.2-0.5-1.6-1.3-1.6s-1.5,0.6-1.5,1.8V35h-1v-5.8h1V30h0c0.4-0.6,1.1-0.9,1.8-0.9
	C246.2,29.1,246.9,29.9,246.9,31.5z"/>
<path d="M250.9,35.3c-0.6,1.5-1.1,1.9-2.4,1.9c-0.2,0-0.4,0-0.5-0.1v-0.8c0.2,0,0.3,0.1,0.5,0.1c0.8,0,1.1-0.3,1.4-1.3l-2.2-5.8h1.1
	l1.7,4.6h0l1.7-4.6h1.1L250.9,35.3z"/>
</svg>
