<?xml version="1.0" encoding="utf-8"?>
<!-- Generator: Adobe Illustrator 25.2.0, SVG Export Plug-In . SVG Version: 6.00 Build 0)  -->
<svg version="1.1" id="Layer_1" xmlns="http://www.w3.org/2000/svg" xmlns:xlink="http://www.w3.org/1999/xlink" x="0px" y="0px"
	 viewBox="0 0 258.2 162.6" style="enable-background:new 0 0 258.2 162.6;" xml:space="preserve">
<style type="text/css">
	.st0{fill:#FFFFFF;}
	.st1{fill:#00A7E1;}
	.st2{fill:none;stroke:#FFFFFF;stroke-width:1.528;stroke-miterlimit:10;}
	.st3{fill:none;stroke:#FFFFFF;stroke-width:1.528;stroke-miterlimit:10;stroke-dasharray:2.03,4.059,2.03,4.059;}
	.st4{fill:none;stroke:#FFFFFF;stroke-width:1.528;stroke-miterlimit:10;stroke-dasharray:2.03,4.059,2.03,4.059,2.03,4.059;}
	.st5{fill:none;stroke:#FFFFFF;stroke-width:1.528;stroke-miterlimit:10;stroke-dasharray:1.925,3.849,1.925,3.849;}
	.st6{fill:none;stroke:#FFFFFF;stroke-width:1.528;stroke-miterlimit:10;stroke-dasharray:1.925,3.849,1.925,3.849,1.925,3.849;}
</style>
<g>
	<polygon class="st0" points="11,101.6 28.4,107.6 32.6,95.5 29,94.2 26.2,102.3 22.6,101.1 25.1,93.8 21.7,92.7 19.2,99.9 
		15.9,98.8 18.6,91.1 15,89.9 	"/>
	<polygon class="st0" points="34.9,90.5 18.7,81.8 20.8,77.9 33.6,84.8 36.9,78.5 40.4,80.3 	"/>
	
		<rect x="34.6" y="60.3" transform="matrix(0.5811 -0.8138 0.8138 0.5811 -41.1284 59.0515)" class="st0" width="4.5" height="18.4"/>
	<polygon class="st0" points="44.1,52.3 54.8,62.3 51.7,65.5 41.1,55.5 37.5,59.3 34.7,56.7 44.9,45.9 47.7,48.5 	"/>
	<polygon class="st0" points="61.8,55.6 50.7,40.9 60.5,33.4 62.8,36.4 56.3,41.3 58.4,44.1 64.5,39.5 66.7,42.3 60.6,46.9 62.9,50 
		69.7,44.8 72,47.8 	"/>
	<path class="st0" d="M95.6,36.2l-2.7-2.8l-6.6,2.7l0.1,3.9l-4.5,1.8l0.3-19.9l4-1.6l14,14.2L95.6,36.2z M86,25.6l0.2,6.7l4.3-1.7
		L86,25.6z"/>
	<path class="st0" d="M115.5,18.4c0.2,1.1,0.2,2-0.1,2.8c-0.3,0.8-0.7,1.5-1.2,2.1c-0.6,0.6-1.3,1-2.1,1.4c-0.8,0.4-1.7,0.6-2.6,0.8
		l-2.2,0.4l1.3,6.8l-4.4,0.8l-3.5-18.1l6.6-1.3c1-0.2,1.9-0.3,2.8-0.2c0.9,0,1.7,0.2,2.4,0.5c0.7,0.3,1.3,0.8,1.8,1.4
		C114.9,16.5,115.3,17.3,115.5,18.4L115.5,18.4z M111.1,19.3c-0.1-0.4-0.2-0.8-0.5-1c-0.2-0.2-0.5-0.4-0.8-0.5
		c-0.3-0.1-0.7-0.1-1-0.1s-0.8,0.1-1.2,0.1l-1.9,0.4l0.8,4.3l1.8-0.4c0.4-0.1,0.8-0.2,1.2-0.3c0.4-0.1,0.7-0.3,0.9-0.6
		c0.3-0.2,0.5-0.5,0.6-0.8C111.2,20.1,111.2,19.7,111.1,19.3L111.1,19.3z"/>
	<path class="st0" d="M136.9,17.6c0,1.1-0.2,2-0.6,2.7c-0.4,0.7-0.9,1.3-1.6,1.8c-0.7,0.5-1.4,0.8-2.3,1c-0.9,0.2-1.8,0.3-2.8,0.3
		l-2.2,0l0.1,6.9l-4.4,0l-0.2-18.4l6.8-0.1c1,0,1.9,0.1,2.8,0.3c0.9,0.2,1.6,0.5,2.3,0.9c0.7,0.4,1.2,1,1.5,1.7
		C136.7,15.7,136.9,16.5,136.9,17.6L136.9,17.6z M132.5,17.7c0-0.4-0.1-0.8-0.3-1.1c-0.2-0.3-0.4-0.5-0.7-0.6
		c-0.3-0.2-0.6-0.3-1-0.3c-0.4,0-0.8-0.1-1.2-0.1l-1.9,0l0,4.3l1.9,0c0.4,0,0.8,0,1.2-0.1c0.4-0.1,0.7-0.2,1-0.4
		c0.3-0.2,0.5-0.4,0.7-0.7C132.4,18.5,132.5,18.1,132.5,17.7L132.5,17.7z"/>
	<polygon class="st0" points="142.2,30.9 145.1,12.8 149.5,13.5 147.2,27.8 154.2,28.9 153.6,32.7 	"/>
	
		<rect x="153.5" y="23.6" transform="matrix(0.2784 -0.9605 0.9605 0.2784 92.642 174.8731)" class="st0" width="18.4" height="4.5"/>
	<path class="st0" d="M180.4,42.3c-1.3,0-2.7-0.3-4.1-1c-1.3-0.6-2.4-1.3-3.3-2.3c-0.9-0.9-1.6-2-2-3.1c-0.4-1.1-0.7-2.4-0.6-3.7
		c0-1.3,0.4-2.6,1-3.9c0.6-1.3,1.4-2.4,2.4-3.3c1-0.9,2-1.5,3.2-1.9c1.2-0.4,2.4-0.5,3.7-0.4c1.3,0.1,2.6,0.4,3.8,1
		c1.2,0.5,2.2,1.3,3.2,2.2c1,0.9,1.6,2,1.9,3.1l-4,1.5c-0.1-0.7-0.5-1.3-1-1.8c-0.5-0.5-1.1-0.9-1.7-1.2c-0.7-0.3-1.4-0.5-2.1-0.5
		c-0.7,0-1.4,0.1-2,0.4c-0.6,0.3-1.2,0.7-1.7,1.2s-0.9,1.1-1.3,1.9c-0.3,0.8-0.5,1.5-0.6,2.2c-0.1,0.7,0,1.4,0.2,2.1
		c0.2,0.6,0.6,1.2,1,1.7c0.5,0.5,1,0.9,1.7,1.3c0.8,0.4,1.6,0.5,2.3,0.5c0.7,0,1.4-0.2,2-0.6l1.6,3.9
		C182.9,42,181.7,42.3,180.4,42.3L180.4,42.3z"/>
	<path class="st0" d="M196.6,53.3l1-3.8l-5.8-4.2l-3.2,2.1l-3.9-2.8l17-10.4l3.5,2.5l-4.6,19.4L196.6,53.3z M200.5,39.5l-5.6,3.8
		l3.7,2.7L200.5,39.5z"/>
	<polygon class="st0" points="218.2,53.5 207.8,63.7 204.7,60.6 215.1,50.3 211.5,46.6 214.2,44 224.6,54.6 221.8,57.2 	"/>
	<path class="st0" d="M232.3,81.2c-1.2,0.8-2.5,1.3-3.7,1.6c-1.3,0.2-2.5,0.2-3.7,0c-1.2-0.3-2.3-0.8-3.4-1.6c-1.1-0.8-2-1.8-2.8-3
		c-0.8-1.2-1.3-2.4-1.6-3.7c-0.3-1.3-0.3-2.5-0.1-3.7c0.2-1.2,0.7-2.4,1.4-3.4c0.7-1.1,1.7-2,2.9-2.8c1.2-0.8,2.5-1.3,3.7-1.6
		c1.3-0.2,2.5-0.2,3.7,0.1c1.2,0.3,2.3,0.8,3.4,1.6c1,0.8,2,1.8,2.8,3c0.8,1.2,1.3,2.4,1.6,3.7c0.3,1.3,0.4,2.5,0.2,3.7
		c-0.2,1.2-0.7,2.3-1.4,3.4C234.5,79.4,233.5,80.4,232.3,81.2L232.3,81.2z M229.6,77.2c0.7-0.4,1.2-1,1.6-1.6
		c0.4-0.6,0.7-1.2,0.9-1.9c0.2-0.7,0.2-1.3,0.1-2c-0.1-0.7-0.4-1.4-0.8-2c-0.4-0.6-0.9-1.2-1.5-1.5c-0.6-0.4-1.2-0.6-1.9-0.7
		c-0.7-0.1-1.4-0.1-2.1,0.1c-0.7,0.2-1.4,0.5-2.1,0.9c-0.7,0.5-1.3,1-1.7,1.6c-0.4,0.6-0.7,1.2-0.9,1.9c-0.2,0.7-0.2,1.3-0.1,2
		c0.1,0.7,0.4,1.4,0.8,2c0.4,0.6,0.9,1.2,1.5,1.5c0.6,0.4,1.2,0.6,1.9,0.7c0.7,0.1,1.4,0.1,2.1-0.1C228.2,78,228.9,77.7,229.6,77.2
		L229.6,77.2z"/>
	<path class="st0" d="M230.4,100.5l5.3-6.4l-0.6-1.4l-6.8,2.7l-1.6-4l17.1-6.8l2.6,6.5c0.3,0.8,0.6,1.7,0.7,2.5
		c0.1,0.8,0.1,1.7,0,2.4c-0.2,0.8-0.5,1.5-1,2.1c-0.5,0.6-1.3,1.1-2.2,1.5c-1.2,0.5-2.3,0.5-3.3,0.2c-1-0.3-1.9-1-2.7-1.9l-5.6,7.4
		L230.4,100.5z M242.2,95.6c0.4-0.2,0.7-0.4,0.9-0.6c0.2-0.3,0.3-0.6,0.3-0.9c0-0.3,0-0.7-0.1-1c-0.1-0.4-0.2-0.7-0.3-1l-0.9-2.2
		l-4,1.6l0.8,2c0.1,0.3,0.3,0.7,0.5,1c0.2,0.3,0.4,0.6,0.7,0.9c0.3,0.2,0.6,0.4,0.9,0.5C241.3,95.9,241.7,95.8,242.2,95.6
		L242.2,95.6z"/>
	<path class="st0" d="M149.5,100.1c0,0.8-0.7,1.5-1.5,1.5c-0.8,0-1.5-0.7-1.5-1.5c0-0.8,0.7-1.5,1.5-1.5
		C148.8,98.6,149.5,99.2,149.5,100.1L149.5,100.1z M146.9,100.1c0,0.7,0.5,1.2,1.1,1.2c0.6,0,1.1-0.5,1.1-1.2c0-0.7-0.5-1.2-1.1-1.2
		C147.4,98.9,146.9,99.4,146.9,100.1L146.9,100.1z M147.8,100.8h-0.3v-1.5c0.1,0,0.3,0,0.6,0c0.3,0,0.4,0,0.5,0.1
		c0.1,0.1,0.2,0.2,0.2,0.3c0,0.2-0.1,0.3-0.3,0.3v0c0.1,0,0.2,0.2,0.3,0.4c0,0.2,0.1,0.3,0.1,0.4h-0.4c0-0.1-0.1-0.2-0.1-0.4
		c0-0.2-0.1-0.2-0.3-0.2h-0.2V100.8z M147.8,100h0.2c0.2,0,0.3-0.1,0.3-0.2c0-0.1-0.1-0.2-0.3-0.2c-0.1,0-0.2,0-0.2,0V100z"/>
	<polygon class="st0" points="119.6,109.8 119.6,96.6 122.2,94 129.7,101.5 129.7,104 	"/>
	<polygon class="st0" points="114.3,85.3 105.8,93.8 116.2,97.6 128.5,85.3 	"/>
	<polygon class="st0" points="118.4,73.6 107.6,73.6 111,83.6 128.5,83.6 	"/>
	<polygon class="st0" points="129.7,68.2 121.3,59.8 117.4,70.1 129.7,82.4 	"/>
	<polygon class="st0" points="155.1,95.4 142.7,95.4 132.6,85.3 150,85.3 	"/>
	<polygon class="st0" points="144.9,71.3 156.2,74.2 146.8,83.6 132.6,83.6 	"/>
	<polygon class="st0" points="131.4,65 141.4,59 141.4,72.3 131.4,82.4 	"/>
	<polygon class="st0" points="144.2,99.3 141,110.3 123.4,92.8 130.5,85.7 	"/>
	<path class="st1" d="M44.4,149.7c-1.3,0.6-2.8,0.9-4.4,0.9c-1.5,0-2.9-0.3-4.2-0.8c-1.3-0.5-2.4-1.2-3.4-2.1c-1-0.9-1.7-2-2.2-3.3
		c-0.5-1.3-0.8-2.7-0.8-4.2c0-1.6,0.3-3,0.8-4.3c0.5-1.3,1.3-2.4,2.3-3.3c1-0.9,2.1-1.6,3.4-2.1c1.3-0.5,2.7-0.7,4.2-0.7
		c1.4,0,2.8,0.2,4.1,0.7c1.4,0.5,2.4,1.2,3.3,2.2l-3.2,3.2c-0.4-0.6-1-1.1-1.8-1.4c-0.7-0.3-1.5-0.4-2.2-0.4c-0.8,0-1.6,0.2-2.3,0.5
		s-1.3,0.7-1.8,1.3c-0.5,0.5-0.9,1.2-1.2,1.9c-0.3,0.7-0.4,1.5-0.4,2.4c0,0.9,0.1,1.7,0.4,2.5c0.3,0.7,0.7,1.4,1.2,1.9
		c0.5,0.5,1.1,0.9,1.8,1.2c0.7,0.3,1.4,0.4,2.3,0.4c1,0,1.8-0.2,2.5-0.6c0.7-0.4,1.3-0.9,1.7-1.5l3.3,3.1
		C46.7,148.3,45.7,149.1,44.4,149.7L44.4,149.7z"/>
	<path class="st1" d="M72.4,140.1c0,1.6-0.3,3-0.8,4.3c-0.5,1.3-1.3,2.4-2.2,3.3c-1,0.9-2.1,1.6-3.4,2.1c-1.3,0.5-2.8,0.8-4.3,0.8
		c-1.5,0-3-0.3-4.3-0.8c-1.3-0.5-2.5-1.2-3.4-2.1c-1-0.9-1.7-2-2.2-3.3c-0.5-1.3-0.8-2.7-0.8-4.3c0-1.6,0.3-3,0.8-4.3
		c0.5-1.3,1.3-2.4,2.2-3.3c1-0.9,2.1-1.6,3.4-2.1c1.3-0.5,2.7-0.7,4.3-0.7c1.5,0,3,0.2,4.3,0.7c1.3,0.5,2.5,1.2,3.4,2.1
		c1,0.9,1.7,2,2.2,3.3C72.1,137.1,72.4,138.5,72.4,140.1L72.4,140.1z M67.3,140.1c0-0.9-0.1-1.7-0.4-2.4c-0.3-0.7-0.7-1.4-1.2-1.9
		c-0.5-0.5-1.1-1-1.8-1.3c-0.7-0.3-1.5-0.5-2.3-0.5c-0.8,0-1.6,0.2-2.3,0.5c-0.7,0.3-1.3,0.7-1.8,1.3c-0.5,0.5-0.9,1.2-1.2,1.9
		c-0.3,0.7-0.4,1.5-0.4,2.4c0,0.9,0.1,1.7,0.4,2.5c0.3,0.8,0.7,1.4,1.2,1.9c0.5,0.5,1.1,1,1.8,1.3c0.7,0.3,1.5,0.5,2.3,0.5
		c0.8,0,1.6-0.2,2.3-0.5c0.7-0.3,1.3-0.7,1.8-1.3c0.5-0.5,0.9-1.2,1.2-1.9C67.2,141.8,67.3,141,67.3,140.1L67.3,140.1z"/>
	<polygon class="st1" points="78,150.1 78,130.3 82.8,130.3 82.8,145.9 90.5,145.9 90.5,150.1 	"/>
	<polygon class="st1" points="95.2,150.1 95.2,130.3 100,130.3 100,145.9 107.7,145.9 107.7,150.1 	"/>
	<polygon class="st1" points="112.4,150.1 112.4,130.3 125.7,130.3 125.7,134.3 117,134.3 117,138 125.2,138 125.2,141.9 117,141.9 
		117,146 126.2,146 126.2,150.1 	"/>
	<path class="st1" d="M146,149.7c-1.3,0.6-2.8,0.9-4.4,0.9c-1.5,0-2.9-0.3-4.2-0.8c-1.3-0.5-2.4-1.2-3.4-2.1c-1-0.9-1.7-2-2.2-3.3
		c-0.5-1.3-0.8-2.7-0.8-4.2c0-1.6,0.3-3,0.8-4.3c0.5-1.3,1.3-2.4,2.3-3.3c1-0.9,2.1-1.6,3.4-2.1c1.3-0.5,2.7-0.7,4.2-0.7
		c1.4,0,2.8,0.2,4.1,0.7c1.4,0.5,2.4,1.2,3.3,2.2l-3.2,3.2c-0.4-0.6-1-1.1-1.8-1.4c-0.7-0.3-1.5-0.4-2.2-0.4c-0.8,0-1.6,0.2-2.3,0.5
		c-0.7,0.3-1.3,0.7-1.8,1.3c-0.5,0.5-0.9,1.2-1.2,1.9c-0.3,0.7-0.4,1.5-0.4,2.4c0,0.9,0.1,1.7,0.4,2.5c0.3,0.7,0.7,1.4,1.2,1.9
		c0.5,0.5,1.1,0.9,1.8,1.2c0.7,0.3,1.4,0.4,2.3,0.4c1,0,1.8-0.2,2.5-0.6c0.7-0.4,1.3-0.9,1.7-1.5l3.3,3.1
		C148.3,148.3,147.3,149.1,146,149.7L146,149.7z"/>
	<polygon class="st1" points="162,134.4 162,150.1 157.2,150.1 157.2,134.4 151.6,134.4 151.6,130.3 167.6,130.3 167.6,134.4 	"/>
	<rect x="172.3" y="130.3" class="st1" width="4.8" height="19.8"/>
	<path class="st1" d="M204.2,140.1c0,1.6-0.3,3-0.8,4.3c-0.5,1.3-1.3,2.4-2.3,3.3c-1,0.9-2.1,1.6-3.4,2.1c-1.3,0.5-2.8,0.8-4.3,0.8
		c-1.5,0-3-0.3-4.3-0.8c-1.3-0.5-2.5-1.2-3.4-2.1c-1-0.9-1.7-2-2.2-3.3c-0.5-1.3-0.8-2.7-0.8-4.3c0-1.6,0.3-3,0.8-4.3
		c0.5-1.3,1.3-2.4,2.2-3.3c1-0.9,2.1-1.6,3.4-2.1c1.3-0.5,2.7-0.7,4.3-0.7c1.5,0,3,0.2,4.3,0.7c1.3,0.5,2.5,1.2,3.4,2.1
		c1,0.9,1.7,2,2.3,3.3C204,137.1,204.2,138.5,204.2,140.1L204.2,140.1z M199.1,140.1c0-0.9-0.1-1.7-0.4-2.4
		c-0.3-0.7-0.7-1.4-1.2-1.9c-0.5-0.5-1.1-1-1.8-1.3c-0.7-0.3-1.5-0.5-2.3-0.5c-0.8,0-1.6,0.2-2.3,0.5c-0.7,0.3-1.3,0.7-1.8,1.3
		c-0.5,0.5-0.9,1.2-1.2,1.9c-0.3,0.7-0.4,1.5-0.4,2.4c0,0.9,0.1,1.7,0.4,2.5c0.3,0.8,0.7,1.4,1.2,1.9c0.5,0.5,1.1,1,1.8,1.3
		c0.7,0.3,1.5,0.5,2.3,0.5c0.8,0,1.6-0.2,2.3-0.5c0.7-0.3,1.3-0.7,1.8-1.3c0.5-0.5,0.9-1.2,1.2-1.9C199,141.8,199.1,141,199.1,140.1
		L199.1,140.1z"/>
	<polygon class="st1" points="222.4,150.1 214.5,137.1 214.4,137.1 214.5,150.1 209.9,150.1 209.9,130.3 215.3,130.3 223.2,143.2 
		223.3,143.2 223.2,130.3 227.9,130.3 227.9,150.1 	"/>
	<path class="st2" d="M245.5,146.5c0-0.5,0.1-1.1,0.1-1.8"/>
	<path class="st3" d="M245.6,140.7c-0.1-3-0.2-6.5-0.5-10.1"/>
	<path class="st4" d="M244.9,128.5c-0.5-6-1.3-12-2.3-16.1"/>
	<path class="st2" d="M242.1,110.5c-0.2-0.7-0.4-1.2-0.6-1.7"/>
	<path class="st2" d="M15,148.6c-0.1-0.6-0.1-1.2-0.2-1.8"/>
	<path class="st5" d="M14.6,143c-0.2-3.4-0.3-6.6-0.3-9.6"/>
	<path class="st6" d="M14.3,131.5c0.2-6.7,0.9-12,1.4-15.3"/>
	<path class="st2" d="M16.1,114.2c0.2-1.2,0.4-1.8,0.4-1.8"/>
</g>
</svg>
